FFmpeg version SVN-r25716, Copyright (c) 2000-2010 the FFmpeg developers  built on Nov 10 2010 12:23:18 with gcc 4.1.2 20080704 (Red Hat 4.1.2-48)  configuration: --enable-libmp3lame --enable-shared --disable-mmx --arch=x86_64  libavutil     50.33. 0 / 50.33. 0  libavcore      0.12. 1 /  0.12. 1  libavcodec    52.94. 4 / 52.94. 4  libavformat   52.84. 0 / 52.84. 0  libavdevice   52. 2. 2 / 52. 2. 2  libavfilter    1.59. 0 /  1.59. 0  libswscale     0.12. 0 /  0.12. 0Seems stream 0 codec frame rate differs from container frame rate: 600.00 (600/1) -> 7.50 (15/2)Input #0, mov,mp4,m4a,3gp,3g2,mj2, from '/RAID10/data/converted_video_files/12820.mov':  Duration: 00:00:27.86, start: 0.000000, bitrate: 2123 kb/s    Stream #0.0(eng): Video: rpza, rgb555le, 720x340, 2123 kb/s, 7.50 fps, 7.50 tbr, 600 tbn, 600 tbc[buffer @ 0x16b23510] w:720 h:340 pixfmt:rgb555le[ffsink @ 0x16b227a0] auto-inserting filter 'auto-inserted scaler 0' between the filter 'src' and the filter 'out'[scale @ 0x16b216b0] w:720 h:340 fmt:rgb555le -> w:720 h:340 fmt:yuv420p flags:0x4Output #0, flv, to '/RAID10/data/converted_video_files/12820.flv':  Metadata:    encoder         : Lavf52.84.0    Stream #0.0(eng): Video: flv, yuv420p, 720x340, q=2-31, 600 kb/s, 1k tbn, 24 tbcStream mapping:  Stream #0.0 -> #0.0Press [q] to stop encodingframe=   33 fps=  0 q=11.6 size=     294kB time=4.29 bitrate= 561.3kbits/s    frame=   73 fps= 70 q=9.8 size=     541kB time=9.62 bitrate= 460.4kbits/s    frame=  111 fps= 72 q=7.1 size=     759kB time=14.71 bitrate= 422.6kbits/s    frame=  152 fps= 74 q=10.7 size=    1077kB time=20.17 bitrate= 437.5kbits/s    frame=  187 fps= 73 q=8.4 size=    1366kB time=24.83 bitrate= 450.7kbits/s    frame=  209 fps= 73 q=6.8 Lsize=    1524kB time=27.79 bitrate= 449.4kbits/s    video:1521kB audio:0kB global headers:0kB muxing overhead 0.228185%